# xmcd
#
# Track frame offsets: 
#        150
#        15883
#        33975
#        51412
#        73562
#        94240
#        111383
#        131622
#        151560
#        174683
#        197855
#        219400
#        240244
#
# Disc length: 3458 seconds
#
# Revision: 1
# Processed by: cddbd v1.5.2PL0 Copyright (c) Steve Scherf et al.
# Submitted via: ExactAudioCopy v1.3
#
DISCID=a80d800d
DTITLE=劉德華 - 愛如此神奇
DYEAR=2014
DGENRE=Pop
TTITLE0=愛如此神奇
TTITLE1=為何帶他走
TTITLE2=中國人
TTITLE3=你怎麼捨得我難過
TTITLE4=浪人情歌
TTITLE5=花心
TTITLE6=無情的雨無情的你
TTITLE7=愛如潮水
TTITLE8=吻別
TTITLE9=你把我灌醉
TTITLE10=用心良苦
TTITLE11=我終於失去了你
TTITLE12=最愛是你
EXTD=
EXTT0=
EXTT1=
EXTT2=
EXTT3=
EXTT4=
EXTT5=
EXTT6=
EXTT7=
EXTT8=
EXTT9=
EXTT10=
EXTT11=
EXTT12=
PLAYORDER=
